<svg xmlns="http://www.w3.org/2000/svg" width="174.215" height="69.5" viewBox="0 0 174.215 69.5"><g transform="translate(-38.436 -37.8)"><path d="M39.2,106.1l3.8-5H39.3v-.9h4.9v.9l-3.8,5h3.9v.9h-5v-.9Z" fill="#fff"/><path d="M46.8,100.2h4.4v.9H47.8v2H51v.9H47.8v2.2h3.6v.9H46.9v-6.9Z" fill="#fff"/><path d="M54,100.2h1.2l3.7,5.6h0v-5.6h.9V107H58.6l-3.8-5.6h0V107H54Z" fill="#fff"/><path d="M64.3,101.1H62.1v-.9h5.3v.9H65.2V107h-.9Z" fill="#fff"/><path d="M69.7,100.2h2.4a3.6,3.6,0,0,1,1.1.2,4.348,4.348,0,0,1,.7.4.864.864,0,0,1,.3.6,1.483,1.483,0,0,1,.1.7,1.268,1.268,0,0,1-.1.6,1.729,1.729,0,0,1-.8.9,1.445,1.445,0,0,1-.7.2l1.9,3.1H73.5l-1.7-3h-1v3h-.9v-6.7Zm.9,3h1.7c.2,0,.3-.1.5-.2l.3-.3c.1-.1.1-.3.1-.6a1.268,1.268,0,0,0-.1-.6c-.1-.1-.2-.3-.3-.3a1.689,1.689,0,0,1-.5-.2H70.6Z" fill="#fff"/><path d="M79,100.2h.8l2.9,6.8H81.6l-.7-1.7H77.7L77,107H76Zm1.6,4.3-1.3-3.1h0L78,104.5Z" fill="#fff"/><path d="M84.9,100.2h.9v5.9h3.1v.9h-4Z" fill="#fff"/><path d="M91.4,105.6a2.651,2.651,0,0,0,.6.5,2.354,2.354,0,0,0,.8.2.9.9,0,0,0,.5-.1.52.52,0,0,0,.4-.2,1.381,1.381,0,0,0,.3-.4.749.749,0,0,0,.1-.5.845.845,0,0,0-.2-.6c-.2-.1-.4-.3-.6-.3a6.891,6.891,0,0,0-.8-.3,2.01,2.01,0,0,1-.8-.4c-.2-.2-.5-.4-.6-.6a1.645,1.645,0,0,1-.2-1,1.268,1.268,0,0,1,.1-.6,2.092,2.092,0,0,1,.4-.6,4.234,4.234,0,0,1,.7-.5,2.959,2.959,0,0,1,1-.2,4.253,4.253,0,0,1,1.1.2,1.8,1.8,0,0,1,.9.6l-.7.7a1,1,0,0,0-.5-.4,1.445,1.445,0,0,0-.7-.2c-.3,0-.5,0-.6.1a1.38,1.38,0,0,0-.4.3c-.1.1-.2.2-.2.3s-.1.2-.1.3a1.445,1.445,0,0,0,.2.7,2.092,2.092,0,0,0,.6.4,6.891,6.891,0,0,0,.8.3,6.889,6.889,0,0,1,.8.3,1.167,1.167,0,0,1,.6.6,1.5,1.5,0,0,1,.2,1,2.92,2.92,0,0,1-.2.9,1.794,1.794,0,0,1-.5.7,2.507,2.507,0,0,1-.7.4,2.769,2.769,0,0,1-.9.1,5.019,5.019,0,0,1-1.2-.2,2.178,2.178,0,0,1-.9-.7Z" fill="#fff"/><path d="M99.2,101.1H97v-.9h5.3v.9h-2.2V107h-.9v-5.9Z" fill="#fff"/><path d="M105.9,100.2h.8l2.9,6.8h-1.1l-.7-1.7h-3.2L104,107h-1.1Zm1.6,4.3-1.3-3.1h0l-1.3,3.1Z" fill="#fff"/><path d="M112.6,100.2v4.1a1.952,1.952,0,0,0,.1.7l.3.6c.1.2.3.3.5.5a1.7,1.7,0,0,0,1.6,0,1.205,1.205,0,0,0,.5-.5l.3-.6a1.483,1.483,0,0,0,.1-.7v-4.1h.9v4.3a3.6,3.6,0,0,1-.2,1.1,1.555,1.555,0,0,1-.6.8,2.177,2.177,0,0,1-.8.5,2.6,2.6,0,0,1-2,0,2.177,2.177,0,0,1-.8-.5,5.547,5.547,0,0,1-.6-.8,3.6,3.6,0,0,1-.2-1.1v-4.3Z" fill="#fff"/><path d="M119.9,100.2h2.3a1.95,1.95,0,0,1,.8.1,1.628,1.628,0,0,1,.6.3,1,1,0,0,1,.4.5,1.854,1.854,0,0,1,.2.7,1.689,1.689,0,0,1-.3,1,2.177,2.177,0,0,1-.8.5h0a1.421,1.421,0,0,1,.6.2,1.756,1.756,0,0,1,.5.4,2.186,2.186,0,0,1,.3.5,1.268,1.268,0,0,1,.1.6,1.884,1.884,0,0,1-.2.8,2.651,2.651,0,0,1-.5.6,2.01,2.01,0,0,1-.8.4,2.769,2.769,0,0,1-.9.1h-2.3v-6.7Zm.9,2.8h1.3a.9.9,0,0,0,.5-.1.52.52,0,0,0,.4-.2l.3-.3a.749.749,0,0,0,.1-.5.908.908,0,0,0-.3-.7.984.984,0,0,0-.8-.3h-1.4V103Zm0,3.2h1.8c.2,0,.3-.1.5-.2a1.38,1.38,0,0,0,.4-.3.845.845,0,0,0,.2-.6.975.975,0,0,0-.4-.9,1.8,1.8,0,0,0-1.1-.3h-1.4Z" fill="#fff"/><path d="M127.4,105.6a2.651,2.651,0,0,0,.6.5,2.354,2.354,0,0,0,.8.2.9.9,0,0,0,.5-.1.52.52,0,0,0,.4-.2,1.38,1.38,0,0,0,.3-.4.749.749,0,0,0,.1-.5.845.845,0,0,0-.2-.6c-.2-.1-.4-.3-.6-.3a6.891,6.891,0,0,0-.8-.3,2.01,2.01,0,0,1-.8-.4c-.2-.2-.5-.4-.6-.6a1.645,1.645,0,0,1-.2-1,1.268,1.268,0,0,1,.1-.6,2.092,2.092,0,0,1,.4-.6,4.234,4.234,0,0,1,.7-.5,2.959,2.959,0,0,1,1-.2,4.253,4.253,0,0,1,1.1.2,1.8,1.8,0,0,1,.9.6l-.7.7a1,1,0,0,0-.5-.4,1.445,1.445,0,0,0-.7-.2c-.3,0-.5,0-.6.1a1.38,1.38,0,0,0-.4.3c-.1.1-.2.2-.2.3s-.1.2-.1.3a1.445,1.445,0,0,0,.2.7,2.092,2.092,0,0,0,.6.4,6.891,6.891,0,0,0,.8.3,6.888,6.888,0,0,1,.8.3,1.167,1.167,0,0,1,.6.6,1.5,1.5,0,0,1,.2,1,2.92,2.92,0,0,1-.2.9,1.794,1.794,0,0,1-.5.7,2.507,2.507,0,0,1-.7.4,2.769,2.769,0,0,1-.9.1,5.019,5.019,0,0,1-1.2-.2,2.178,2.178,0,0,1-.9-.7Z" fill="#fff"/><path d="M136,100.2h.8l2.9,6.8h-1.1l-.7-1.7h-3.2L134,107h-1Zm1.6,4.3-1.3-3.1h0l-1.3,3.1Z" fill="#fff"/><path d="M142.7,100.2v4.1a1.952,1.952,0,0,0,.1.7l.3.6c.1.2.3.3.5.5a1.7,1.7,0,0,0,1.6,0,1.205,1.205,0,0,0,.5-.5l.3-.6a1.483,1.483,0,0,0,.1-.7v-4.1h.9v4.3a3.6,3.6,0,0,1-.2,1.1,1.555,1.555,0,0,1-.6.8,2.177,2.177,0,0,1-.8.5,2.6,2.6,0,0,1-2,0,2.177,2.177,0,0,1-.8-.5,5.548,5.548,0,0,1-.6-.8,3.6,3.6,0,0,1-.2-1.1v-4.3Z" fill="#fff"/><path d="M155.7,103.2v3.3l-.6.3a6.372,6.372,0,0,1-.7.2,1.7,1.7,0,0,1-.7.1H153a3.339,3.339,0,0,1-1.5-.3,2.836,2.836,0,0,1-1.1-.8,6.726,6.726,0,0,1-.7-1.1,4.052,4.052,0,0,1,.1-2.8,4.129,4.129,0,0,1,.7-1.1,2.589,2.589,0,0,1,1.1-.7,5.768,5.768,0,0,1,1.4-.3,6.052,6.052,0,0,1,1.5.2,3.328,3.328,0,0,1,1,.6l-.6.7a2.361,2.361,0,0,0-.9-.6,2.6,2.6,0,0,0-2,0,1.555,1.555,0,0,0-.8.6,1.934,1.934,0,0,0-.5.9,3.553,3.553,0,0,0-.2,1,4.253,4.253,0,0,0,.2,1.1,2.361,2.361,0,0,0,.6.9,5.547,5.547,0,0,0,.8.6,3.553,3.553,0,0,0,1,.2,2.769,2.769,0,0,0,.9-.1c.3-.1.5-.1.7-.3v-1.9h-1.5V103h2.5Z" fill="#fff"/><path d="M160.8,100.2h.8l2.9,6.8h-1.1l-.7-1.7h-3.2l-.7,1.7h-1.1Zm1.7,4.3-1.3-3.1h0l-1.3,3.1Z" fill="#fff"/><path d="M166.8,100.2H168l3.7,5.6h0v-5.6h.9V107h-1.2l-3.8-5.6h0V107h-.9v-6.8Z" fill="#fff"/><path d="M175.7,100.2h.9v5.9h3.1v.9h-4Z" fill="#fff"/><path d="M184.1,100.2h.8l2.9,6.8h-1.1l-.7-1.7h-3.2l-.7,1.7H181Zm1.6,4.3-1.3-3.1h0l-1.3,3.1Z" fill="#fff"/><path d="M195.8,103.2v3.3l-.6.3a6.372,6.372,0,0,1-.7.2,1.7,1.7,0,0,1-.7.1h-.7a3.339,3.339,0,0,1-1.5-.3,2.836,2.836,0,0,1-1.1-.8,6.726,6.726,0,0,1-.7-1.1,4.052,4.052,0,0,1,.1-2.8,4.129,4.129,0,0,1,.7-1.1,2.589,2.589,0,0,1,1.1-.7,5.768,5.768,0,0,1,1.4-.3,6.052,6.052,0,0,1,1.5.2,3.328,3.328,0,0,1,1,.6l-.6.7a2.361,2.361,0,0,0-.9-.6,2.6,2.6,0,0,0-2,0,1.555,1.555,0,0,0-.8.6,1.934,1.934,0,0,0-.5.9,3.553,3.553,0,0,0-.2,1,4.253,4.253,0,0,0,.2,1.1,2.361,2.361,0,0,0,.6.9,5.547,5.547,0,0,0,.8.6,3.553,3.553,0,0,0,1,.2,2.769,2.769,0,0,0,.9-.1c.3-.1.5-.1.7-.3v-1.9h-1.5V103h2.5Z" fill="#fff"/><path d="M198.8,100.2h4.4v.9h-3.4v2H203v.9h-3.2v2.2h3.6v.9h-4.5v-6.9Z" fill="#fff"/><path d="M206,100.2h1.2l3.7,5.6h0v-5.6h.9V107h-1.2l-3.8-5.6h0V107H206Z" fill="#fff"/><path d="M94.6,48.4a4.7,4.7,0,1,0-4.7-4.7,4.695,4.695,0,0,0,4.7,4.7" fill="#ed3a95"/><path d="M212.2,62.2a10.115,10.115,0,0,0-4.3-5.9,14.2,14.2,0,0,0-8-2,20.5,20.5,0,0,0-8.7,2,22.638,22.638,0,0,0-4.2,2.6l1.1-4.3h-7l-9.9,37.6h7l6-22.8a9.374,9.374,0,0,1,2.6-4.5,15.7,15.7,0,0,1,4.5-3.1,13.305,13.305,0,0,1,5.5-1.2,10.655,10.655,0,0,1,5.3,1.2,6.064,6.064,0,0,1,2.9,3.7,12.812,12.812,0,0,1-.2,6.4l-5.3,20.3h7l5.3-20.3a19.2,19.2,0,0,0,.4-9.7" fill="#fff"/><path d="M162.5,73.1c-1.8,6.8-8.8,12.4-15.6,12.4S136,80,137.8,73.1c1.8-6.8,8.8-12.4,15.6-12.4s10.9,5.5,9.1,12.4m11.8-18.6h-7s-1,3.6-1.1,3.8a15.04,15.04,0,0,0-11.1-4.4H116.2a25.294,25.294,0,0,0-6.5,1.1,18.634,18.634,0,0,0-6.2,3.4,11.046,11.046,0,0,0-3.6,5.8,7.074,7.074,0,0,0,1.3,6.8c1.6,1.8,4.6,3.2,9,4.1,3.4.6,5.6,1.5,6.7,2.5a3.289,3.289,0,0,1,1,3.6,5.648,5.648,0,0,1-3.1,3.4,13.246,13.246,0,0,1-6.4,1.3H87.7L96,54.5H89L79.1,92.1h28.5a21.928,21.928,0,0,0,8-1.5,16.4,16.4,0,0,0,6-4.1,13.536,13.536,0,0,0,3.2-5.7,8.162,8.162,0,0,0,0-4.9,7.633,7.633,0,0,0-3.3-3.7,23.064,23.064,0,0,0-7.5-2.6,21.566,21.566,0,0,1-5.2-1.6,3.859,3.859,0,0,1-2.1-1.8,3.3,3.3,0,0,1-.1-2.2,4.753,4.753,0,0,1,2.9-3,13.334,13.334,0,0,1,5.4-1h24.4a25.618,25.618,0,0,0-8.6,13.1c-2.8,10.6,3.5,19.2,14.1,19.2a23.993,23.993,0,0,0,13.5-4.5L157,92.2h7Z" fill="#fff"/><path d="M71,70.8a18.456,18.456,0,0,1-.4,2.3C68.8,80,61.8,85.5,55,85.5S44.1,80,45.9,73.1h0c1.8-6.8,8.8-12.4,15.6-12.4,5.5,0,9.3,3.7,9.5,8.7v1.4m8.7-33L74.3,58.2a14.968,14.968,0,0,0-11-4.4c-10.6,0-21.4,8.6-24.2,19.2s3.5,19.2,14.1,19.2a23.993,23.993,0,0,0,13.5-4.5l-1.3,4.4h7L86.7,37.8Z" fill="#fff"/></g></svg>